<svg width="48" height="48" viewBox="0 0 48 48" fill="none" xmlns="http://www.w3.org/2000/svg">
<rect width="48" height="48" rx="24" fill="white" fill-opacity="0.12"/>
<path d="M32.8714 20.8704L14.2046 20.8704M32.8714 20.8704L35.3569 25.013C35.914 25.9414 36.1925 26.4057 36.3372 26.9053C36.4653 27.3481 36.516 27.8098 36.4869 28.2698C36.4541 28.789 36.2829 29.3026 35.9406 30.3297L35.6634 31.161C35.1389 32.7347 34.8766 33.5215 34.3901 34.1032C33.9606 34.6169 33.4089 35.0146 32.7857 35.2597C32.08 35.5372 31.2506 35.5372 29.5918 35.5372L17.4841 35.5372C15.8253 35.5372 14.996 35.5372 14.2903 35.2597C13.6671 35.0146 13.1154 34.6169 12.6858 34.1032C12.1993 33.5215 11.9371 32.7347 11.4125 31.161L11.1354 30.3297C10.793 29.3026 10.6218 28.789 10.589 28.2698C10.5599 27.8098 10.6106 27.3481 10.7388 26.9053C10.8834 26.4057 11.162 25.9414 11.719 25.013L14.2046 20.8704M32.8714 20.8704L33.4277 18.9232C33.6915 18 33.8234 17.5384 33.7198 17.1732C33.629 16.8533 33.422 16.5788 33.1394 16.4037C32.8167 16.2037 32.3366 16.2037 31.3765 16.2037L15.6995 16.2037C14.7393 16.2037 14.2593 16.2037 13.9366 16.4037C13.6539 16.5788 13.4469 16.8533 13.3562 17.1732C13.2526 17.5384 13.3844 18 13.6482 18.9232L14.2046 20.8704M23.538 16.2037H18.8237C18.129 16.2037 17.4629 15.9228 16.9717 15.4227C16.4805 14.9226 16.2046 14.2443 16.2046 13.537C16.2046 12.8298 16.4805 12.1515 16.9717 11.6514C17.4629 11.1513 18.129 10.8704 18.8237 10.8704C22.4903 10.8704 23.538 16.2037 23.538 16.2037ZM23.538 16.2037H28.2523C28.9469 16.2037 29.6131 15.9228 30.1043 15.4227C30.5954 14.9226 30.8714 14.2443 30.8714 13.537C30.8714 12.8298 30.5954 12.1515 30.1043 11.6514C29.6131 11.1513 28.9469 10.8704 28.2523 10.8704C24.5856 10.8704 23.538 16.2037 23.538 16.2037Z" stroke="#F2F4FF" stroke-width="2.66669" stroke-linecap="round" stroke-linejoin="round"/>
</svg>
