<svg width="18" height="18" viewBox="0 0 18 18" fill="none" xmlns="http://www.w3.org/2000/svg">
<path d="M11.9999 6C11.9999 6.79565 11.6839 7.55871 11.1213 8.12132C10.5586 8.68393 9.79558 9 8.99994 9C8.20429 9 7.44122 8.68393 6.87862 8.12132C6.31601 7.55871 5.99994 6.79565 5.99994 6M2.72485 5.55104L2.19985 11.851C2.08707 13.2044 2.03068 13.8811 2.25945 14.4031C2.46045 14.8618 2.80871 15.2403 3.24908 15.4787C3.75029 15.75 4.42933 15.75 5.78741 15.75H12.2125C13.5705 15.75 14.2496 15.75 14.7508 15.4787C15.1912 15.2403 15.5394 14.8618 15.7404 14.4031C15.9692 13.8811 15.9128 13.2044 15.8 11.851L15.275 5.55104C15.178 4.38656 15.1295 3.80433 14.8716 3.36364C14.6445 2.97558 14.3064 2.66445 13.9008 2.47038C13.4402 2.25 12.856 2.25 11.6875 2.25L6.31241 2.25C5.1439 2.25 4.55965 2.25 4.09907 2.47038C3.69349 2.66445 3.35536 2.97558 3.12828 3.36364C2.87041 3.80432 2.82189 4.38656 2.72485 5.55104Z" stroke="white" stroke-width="2" stroke-linecap="round" stroke-linejoin="round"/>
</svg>
